<svg version="1.1" id="Layer_1" xmlns="http://www.w3.org/2000/svg" xmlns:xlink="http://www.w3.org/1999/xlink" x="0px" y="0px"
	 width="100%" viewBox="0 0 1024 1024" enable-background="new 0 0 1024 1024" xml:space="preserve">
<path fill="#1E1E4F" opacity="1.000000" stroke="none" 
	d="
M567.000000,1025.000000 
	C378.000000,1025.000000 189.500000,1025.000000 1.000000,1025.000000 
	C1.000000,683.666687 1.000000,342.333344 1.000000,1.000000 
	C342.333344,1.000000 683.666687,1.000000 1025.000000,1.000000 
	C1025.000000,342.333344 1025.000000,683.666687 1025.000000,1025.000000 
	C872.500000,1025.000000 720.000000,1025.000000 567.000000,1025.000000 
M427.530579,418.640472 
	C427.575867,419.096954 427.621155,419.553467 427.460358,420.923370 
	C427.536255,432.583710 427.612122,444.244049 427.457031,456.790649 
	C427.566711,463.863556 427.676422,470.936493 427.669434,478.940552 
	C427.767426,486.930878 427.278809,494.985565 428.146393,502.891449 
	C428.857788,509.374084 431.182983,515.679626 432.878815,522.783997 
	C437.613098,529.090393 442.347382,535.396729 446.569550,542.184448 
	C443.991608,545.302979 444.213013,551.750977 446.896515,555.382568 
	C447.948090,556.805786 448.670624,558.467224 449.643951,559.954102 
	C450.994202,562.016663 451.999756,564.996582 453.926117,565.861572 
	C459.875793,568.532776 464.550537,572.061523 466.908936,578.355469 
	C467.198334,579.127869 468.745544,579.549316 469.788422,579.899231 
	C476.289398,582.080383 482.776672,584.314636 489.340759,586.291382 
	C494.073914,587.716858 498.931549,589.854675 503.712311,589.800171 
	C523.624878,589.573425 543.530151,588.658447 563.434753,587.907654 
	C564.644287,587.862000 566.804626,587.157654 566.866089,586.582703 
	C567.424622,581.357483 571.267090,582.299316 574.652466,581.851379 
	C576.492065,581.608032 578.326294,580.539856 579.937317,579.495605 
	C585.332642,575.998352 590.615479,572.327881 595.962952,568.756104 
	C599.592224,566.331970 603.871826,564.529236 606.745178,561.418335 
	C610.047241,557.843384 612.292603,553.365723 617.661560,552.308716 
	C618.351562,552.172852 619.468994,551.337524 619.444580,550.876282 
	C619.103638,544.445068 622.338440,540.000732 627.151855,536.332336 
	C627.484436,536.078918 627.553467,535.431702 627.669739,534.949463 
	C630.390930,523.662842 633.109924,512.375610 635.796936,501.080841 
	C635.986816,500.282745 635.975098,499.425507 635.976624,498.595612 
	C635.988525,492.101837 636.524536,485.547546 635.810242,479.133118 
	C635.218384,473.816956 633.945374,468.255066 631.527039,463.545044 
	C628.480408,457.611176 624.009033,452.398956 620.056946,446.944519 
	C618.394714,444.650360 616.488220,442.533142 614.692749,440.335480 
	C614.279358,440.704254 613.866028,441.073029 613.452637,441.441833 
	C613.452637,446.625763 613.452637,451.809723 613.015625,456.350922 
	C612.292786,453.994324 611.633057,451.616150 610.835571,449.285065 
	C608.242188,441.704346 606.936035,433.473999 600.149719,427.204895 
	C597.399719,423.834717 595.222595,419.662933 591.807861,417.222961 
	C567.627319,399.944824 543.238647,382.955750 518.801636,366.040283 
	C513.826843,362.596680 508.365356,359.856110 503.025848,356.903625 
	C503.025848,356.903625 503.138092,357.005920 503.223450,356.320374 
	C502.834076,356.088043 502.444702,355.855682 501.819122,355.007233 
	C491.338593,347.763367 480.899994,340.457794 470.359406,333.302399 
	C465.287720,329.859558 460.328217,326.013367 454.783661,323.554596 
	C443.082123,318.365540 428.753326,326.414429 428.183044,339.139496 
	C427.306458,358.697723 427.823578,378.318451 427.518188,398.716919 
	C427.564392,399.821259 427.610596,400.925598 427.445801,402.936401 
	C427.513397,407.944244 427.580994,412.952118 427.530579,418.640472 
M372.101440,625.187927 
	C370.953613,626.837036 369.805756,628.486145 368.245117,630.728394 
	C367.000244,629.194702 365.891144,627.720642 364.670624,626.345581 
	C361.550964,622.830811 358.339752,619.437439 353.024628,619.251343 
	C354.397156,616.043762 355.891724,612.881897 357.112671,609.617615 
	C358.813354,605.070679 357.171478,602.647095 352.274231,602.349182 
	C349.951172,602.207886 347.566589,602.611084 345.290588,602.253662 
	C339.435516,601.334106 336.416321,604.073853 334.461639,609.313782 
	C329.868164,621.627747 324.930176,633.812683 320.218170,646.083130 
	C316.718994,655.195312 313.355621,664.359680 309.539764,674.547241 
	C308.627930,672.364319 308.119568,671.218689 307.666412,670.051697 
	C300.503326,651.605225 293.602356,633.051819 286.110077,614.740234 
	C279.995758,599.796448 282.456207,603.045288 267.359222,602.203247 
	C267.027069,602.184692 266.692963,602.184021 266.360260,602.193481 
	C261.216919,602.339111 259.197540,605.322083 261.175323,610.142822 
	C262.499908,613.371521 264.236847,616.429443 265.599091,619.644409 
	C276.439545,645.228455 287.223389,670.836548 298.056915,696.423523 
	C299.457642,699.731934 300.447540,703.523560 304.750061,704.639893 
	C304.534180,707.275696 303.992859,709.933655 304.170410,712.542664 
	C304.535034,717.901489 310.503998,725.290222 314.659729,725.887756 
	C325.427185,727.436157 333.756317,724.466614 340.371979,714.951660 
	C345.359253,707.778809 347.649475,699.730408 350.722076,691.981506 
	C353.680756,684.519836 360.712677,678.317993 358.656036,669.083313 
	C358.534637,668.538208 359.093109,667.851013 359.307281,667.220459 
	C361.641571,660.347900 363.640808,653.331970 366.495392,646.683105 
	C367.385834,644.609131 370.583557,643.525696 372.912384,642.911011 
	C372.942474,660.367981 372.980499,677.825012 372.998840,695.281982 
	C373.006744,702.786072 372.993073,702.754333 380.284332,703.873657 
	C381.555084,704.068726 382.765381,704.657532 384.094177,705.799072 
	C386.292145,710.012146 388.826843,714.089172 390.599457,718.474182 
	C392.627747,723.491638 395.979462,723.326965 400.300079,722.328918 
	C407.076660,720.763611 413.042694,718.008301 420.782715,722.879944 
	C432.574738,730.301941 446.768188,729.829956 460.470856,728.866028 
	C461.601837,728.786560 462.699005,728.265503 463.818268,727.974121 
	C469.707672,726.440552 475.596497,724.904480 481.495056,723.406799 
	C481.952362,723.290771 482.535828,723.621155 482.970703,723.475464 
	C485.083588,722.767822 487.623199,722.482971 489.172821,721.104980 
	C493.762115,717.024292 498.145325,712.668762 502.246155,708.095276 
	C505.587524,704.368835 509.288086,700.747375 507.267792,694.595215 
	C506.021515,690.799927 509.042572,689.807800 512.575928,690.846558 
	C512.498291,692.900085 512.420654,694.953552 511.824951,697.142578 
	C509.483276,698.704163 510.543732,699.452515 512.773621,700.698608 
	C512.881226,701.704041 512.988892,702.709412 513.090637,704.480957 
	C513.075439,707.020325 513.835815,708.710693 516.879700,708.314758 
	C519.420776,707.984253 520.073181,709.216003 520.488281,711.747925 
	C520.825439,713.804504 522.747864,715.681519 524.204041,717.442322 
	C525.004883,718.410706 526.979492,718.779419 527.256470,719.751343 
	C529.560852,727.840088 537.193054,728.594238 542.801941,728.570068 
	C553.682068,728.523376 564.845398,727.781006 575.350281,724.221558 
	C586.970337,720.284241 597.564880,714.718811 603.690002,703.185181 
	C604.677917,701.325134 606.321289,699.813232 607.804138,697.962463 
	C609.270203,699.750488 610.078857,700.736633 610.837463,701.661865 
	C612.334778,700.242798 613.523743,699.115906 614.920776,698.746948 
	C615.617126,700.548035 616.313477,702.349060 617.102783,704.846436 
	C618.252136,706.158264 619.371887,707.497803 620.559631,708.773865 
	C621.657349,709.953247 623.487732,710.882446 623.861328,712.235168 
	C626.671143,722.408875 635.648193,725.329712 643.760559,726.400574 
	C656.334717,728.060242 669.281372,727.749390 682.010681,727.103638 
	C691.674927,726.613281 697.329773,719.415771 697.543762,709.729187 
	C697.567688,708.645325 697.226562,707.217957 696.504822,706.512878 
	C693.812927,703.883423 690.891846,701.488647 687.827942,698.176086 
	C687.678833,695.351624 687.581482,692.523315 687.370361,689.703491 
	C686.884766,683.218750 686.049255,682.429871 679.441895,682.293457 
	C670.959290,682.118286 662.475464,681.998169 653.992432,681.027954 
	C653.005188,676.350159 651.519958,671.711914 651.143738,666.985535 
	C650.530579,659.282471 651.615845,651.518250 648.053406,644.070557 
	C644.828918,637.329529 642.539185,630.141418 639.837219,623.150452 
	C639.308167,623.300598 638.779175,623.450684 638.250122,623.600830 
	C638.250122,631.206238 638.045532,638.819092 638.324890,646.414246 
	C638.499573,651.160400 639.695129,655.866394 639.914001,660.614258 
	C640.264954,668.227539 638.319031,676.390015 645.144775,682.027466 
	C642.475891,681.676941 639.807007,681.326416 637.183960,680.723511 
	C637.199219,680.462646 637.133972,680.220764 636.796692,679.157593 
	C636.757996,658.360168 636.664001,637.562683 636.700562,616.765442 
	C636.723816,603.500610 636.810486,603.500732 623.730957,603.279846 
	C616.749023,603.161926 614.969666,604.981506 614.953369,612.103821 
	C614.919739,626.739136 614.851318,641.374268 614.085449,655.960815 
	C611.427734,653.709412 607.877136,651.956116 606.288330,649.108337 
	C602.332336,642.018127 602.581299,641.756348 594.983582,642.284973 
	C594.282715,640.806396 593.475952,639.368042 592.896973,637.843201 
	C584.745239,616.373596 568.303406,606.518494 546.244812,604.917480 
	C537.304993,604.268677 528.306030,604.234314 519.337708,604.317139 
	C517.086182,604.337891 514.848816,605.889893 512.350525,606.953918 
	C512.240295,607.046387 512.043091,607.135742 512.039673,607.231873 
	C512.034241,607.386597 512.156738,607.545715 512.275330,608.553101 
	C512.310669,619.704407 512.346069,630.855652 511.784180,642.153625 
	C509.615265,643.387390 508.234314,643.096741 505.920715,641.397949 
	C502.911530,639.188477 499.276733,635.288330 494.232574,638.592224 
	C486.877075,618.552734 471.911285,607.893372 451.339935,605.289307 
	C440.979706,603.977905 430.378052,604.587463 419.886627,604.292053 
	C415.419403,604.166321 413.587708,606.312317 413.704163,610.717773 
	C413.827209,615.372070 413.608948,620.035461 413.053497,625.317261 
	C410.468781,630.437988 406.978058,631.680359 404.898315,627.773560 
	C402.168121,622.645081 398.809265,622.097107 393.934784,623.123840 
	C393.922394,621.464783 393.921570,619.805542 393.895844,618.146667 
	C393.652435,602.444336 396.474976,603.838745 378.572876,603.328430 
	C374.406708,603.209717 372.951996,605.335693 372.926666,609.097595 
	C372.890961,614.402100 372.819458,619.706238 372.101440,625.187927 
M777.066040,616.267883 
	C778.318726,614.108032 779.704834,612.013306 780.796814,609.775146 
	C783.218201,604.812439 781.892456,602.541504 776.449890,602.262146 
	C773.456299,602.108459 770.431396,602.373901 767.457031,602.080627 
	C763.434021,601.684082 760.888000,603.306641 758.948425,606.761108 
	C753.078369,617.215759 747.068848,627.592651 741.037964,637.955872 
	C740.008850,639.724304 738.606445,641.275513 737.094543,643.305786 
	C735.884644,641.884705 735.031921,641.118103 734.463318,640.179443 
	C727.734619,629.071045 721.122437,617.890991 714.277222,606.855408 
	C713.145752,605.031311 711.206482,602.813293 709.355713,602.509033 
	C704.959778,601.786255 700.381592,601.859680 695.898926,602.072083 
	C692.112976,602.251282 690.705139,604.822449 692.137573,608.277771 
	C692.770020,609.803223 693.637817,611.247314 694.524719,612.648682 
	C703.876343,627.424927 713.420837,642.083374 722.494385,657.027893 
	C724.519775,660.363708 725.708557,664.648804 725.905762,668.566162 
	C726.391235,678.208435 725.903015,687.896729 726.217407,697.553101 
	C726.286743,699.685486 728.057434,701.762390 729.142334,704.584900 
	C731.488281,708.603088 733.277344,713.126953 736.337219,716.496948 
	C739.384521,719.853088 743.565796,722.294312 747.554016,724.613831 
	C748.801270,725.339233 751.688110,725.046204 752.712402,724.062012 
	C759.294556,717.737305 767.168335,712.165588 766.123657,701.134338 
	C765.759216,697.285950 766.397705,693.158386 767.450012,689.402588 
	C769.069885,683.621765 773.912048,678.991272 773.478577,672.324524 
	C773.395874,671.052673 775.219727,669.642273 776.196411,668.319763 
	C777.568726,666.461365 779.141907,664.728210 780.327759,662.759827 
	C783.309448,657.810791 785.154846,651.692261 789.229797,648.000793 
	C795.300842,642.501038 795.266846,636.111206 794.799072,629.371704 
	C794.236450,621.266296 788.822815,616.731812 780.942505,616.968079 
	C779.612549,617.007996 778.280151,616.964111 777.066040,616.267883 
M511.495819,638.528076 
	C511.495819,638.528076 511.484070,638.487732 511.495819,638.528076 
z"/>
<path fill="#FA6A94" opacity="1.000000" stroke="none" 
	d="
M503.128235,356.791443 
	C508.365356,359.856110 513.826843,362.596680 518.801636,366.040283 
	C543.238647,382.955750 567.627319,399.944824 591.807861,417.222961 
	C595.222595,419.662933 597.399719,423.834717 599.934692,427.862000 
	C598.284668,435.730896 594.154602,441.078491 588.367188,445.416656 
	C583.731140,448.891724 579.304260,452.645020 574.767151,456.252960 
	C564.451721,464.455780 554.125610,472.645172 543.500305,480.974670 
	C537.089600,486.017426 530.982483,490.925568 524.565186,495.969360 
	C518.417786,500.593231 512.580505,505.081390 506.425842,509.758850 
	C505.924561,510.112061 505.740662,510.276001 505.374634,510.039001 
	C505.109650,507.493835 504.974396,505.350128 504.952454,503.205231 
	C504.798676,488.159241 504.668243,473.113068 504.626160,457.603149 
	C504.694580,449.110962 504.667206,441.082550 504.736176,432.595459 
	C504.797699,428.092010 504.762848,424.047211 504.799744,419.645874 
	C504.674316,417.670990 504.477173,416.052643 504.417114,414.017334 
	C504.562103,412.736725 504.569977,411.873169 504.679810,410.621155 
	C504.759949,407.102997 504.738129,403.973297 504.752075,400.674194 
	C504.787811,400.504822 504.731171,400.163239 504.788452,399.687439 
	C504.521759,388.166565 504.197845,377.121429 503.865509,365.664490 
	C503.614166,362.432220 503.371216,359.611847 503.128235,356.791443 
z"/>
<path fill="#141B4B" opacity="1.000000" stroke="none" 
	d="
M613.452637,456.993683 
	C613.452637,451.809723 613.452637,446.625763 613.452637,441.441833 
	C613.866028,441.073029 614.279358,440.704254 614.692749,440.335480 
	C616.488220,442.533142 618.394714,444.650360 620.056946,446.944519 
	C624.009033,452.398956 628.480408,457.611176 631.527039,463.545044 
	C633.945374,468.255066 635.218384,473.816956 635.810242,479.133118 
	C636.524536,485.547546 635.988525,492.101837 635.976624,498.595612 
	C635.975098,499.425507 635.986816,500.282745 635.796936,501.080841 
	C633.109924,512.375610 630.390930,523.662842 627.669739,534.949463 
	C627.553467,535.431702 627.484436,536.078918 627.151855,536.332336 
	C622.338440,540.000732 619.103638,544.445068 619.444580,550.876282 
	C619.468994,551.337524 618.351562,552.172852 617.661560,552.308716 
	C612.292603,553.365723 610.047241,557.843384 606.745178,561.418335 
	C603.871826,564.529236 599.592224,566.331970 595.962952,568.756104 
	C590.615479,572.327881 585.332642,575.998352 579.937317,579.495605 
	C578.326294,580.539856 576.492065,581.608032 574.652466,581.851379 
	C571.267090,582.299316 567.424622,581.357483 566.866089,586.582703 
	C566.804626,587.157654 564.644287,587.862000 563.434753,587.907654 
	C543.530151,588.658447 523.624878,589.573425 503.712311,589.800171 
	C498.931549,589.854675 494.073914,587.716858 489.340759,586.291382 
	C482.776672,584.314636 476.289398,582.080383 469.788422,579.899231 
	C468.745544,579.549316 467.198334,579.127869 466.908936,578.355469 
	C464.550537,572.061523 459.875793,568.532776 453.926117,565.861572 
	C451.999756,564.996582 450.994202,562.016663 449.643951,559.954102 
	C448.670624,558.467224 447.948090,556.805786 446.896515,555.382568 
	C444.213013,551.750977 443.991608,545.302979 447.154053,542.068115 
	C449.815643,542.977173 451.892700,544.002625 454.146393,545.320740 
	C461.014282,548.752380 467.468750,552.649170 474.458435,554.832825 
	C482.641968,557.389526 491.224121,559.098694 499.757263,559.992371 
	C509.082397,560.968811 518.688904,561.702148 527.921082,560.540710 
	C541.256470,558.863159 554.122253,554.662170 566.353638,547.988892 
	C574.270508,542.046448 581.831421,536.115234 589.666443,530.013672 
	C594.977417,522.262207 600.014221,514.681030 605.245728,506.880432 
	C605.651611,506.121582 605.862793,505.582153 606.268311,504.828674 
	C606.614807,504.061157 606.766846,503.507721 607.116699,502.704285 
	C607.568542,501.654327 607.822693,500.854279 608.250061,499.781250 
	C608.651123,498.682648 608.878967,497.857086 609.331238,496.743805 
	C610.719299,491.158264 612.455261,485.909088 612.910583,480.551056 
	C613.574463,472.739655 613.317261,464.849976 613.452637,456.993683 
z"/>
<path fill="#F76994" opacity="1.000000" stroke="none" 
	d="
M413.539795,624.694885 
	C413.608948,620.035461 413.827209,615.372070 413.704163,610.717773 
	C413.587708,606.312317 415.419403,604.166321 419.886627,604.292053 
	C430.378052,604.587463 440.979706,603.977905 451.339935,605.289307 
	C471.911285,607.893372 486.877075,618.552734 494.470978,639.274719 
	C494.814270,640.782349 494.836823,641.627991 495.035950,642.429749 
	C502.930603,674.215271 481.132629,703.118591 448.442352,703.985474 
	C437.632141,704.272156 426.808929,704.067261 415.798950,703.940796 
	C415.606201,703.794495 415.124359,703.749207 415.135498,703.794373 
	C415.146667,703.839539 415.236725,703.816040 415.091400,703.568726 
	C414.546509,702.910339 414.146942,702.499329 413.755432,701.614014 
	C413.763428,699.641052 413.767181,698.142334 413.762573,696.643616 
	C413.688934,672.660706 413.614227,648.677795 413.539795,624.694885 
M452.132111,634.178223 
	C447.401031,633.528381 442.681396,632.632629 437.930389,632.411987 
	C436.826935,632.360718 434.631012,634.589783 434.606964,635.802795 
	C434.346619,648.916504 434.340881,662.037964 434.532684,675.153442 
	C434.550629,676.377869 436.498383,678.686218 437.373596,678.604309 
	C442.773987,678.099182 448.453979,677.908997 453.416565,675.994934 
	C461.865387,672.736328 466.375366,665.674988 466.829681,656.672729 
	C467.357239,646.218384 461.839294,639.153870 452.132111,634.178223 
z"/>
<path fill="#F76994" opacity="1.000000" stroke="none" 
	d="
M512.343018,697.007080 
	C512.420654,694.953552 512.498291,692.900085 512.557800,689.963989 
	C512.486877,673.389893 512.434143,657.698425 512.381409,642.006958 
	C512.346069,630.855652 512.310669,619.704407 512.408020,607.911560 
	C512.562134,607.092712 512.583496,606.915466 512.604919,606.738159 
	C514.848816,605.889893 517.086182,604.337891 519.337708,604.317139 
	C528.306030,604.234314 537.304993,604.268677 546.244812,604.917480 
	C568.303406,606.518494 584.745239,616.373596 592.896973,637.843201 
	C593.475952,639.368042 594.282715,640.806396 594.997375,642.993286 
	C595.150085,646.493408 595.208313,649.291931 595.440491,652.075989 
	C597.580750,677.741638 577.188843,702.081665 551.413452,703.669617 
	C538.688538,704.453613 525.871704,703.747009 513.096497,703.714844 
	C512.988892,702.709412 512.881226,701.704041 512.706665,699.969543 
	C512.540771,698.496033 512.441895,697.751526 512.343018,697.007080 
M540.478577,678.219299 
	C543.278687,677.861206 546.137939,677.751709 548.868774,677.102356 
	C561.263855,674.154907 568.391418,662.359009 565.380737,650.011536 
	C562.551270,638.407166 552.223450,631.689148 538.260498,632.034546 
	C534.514160,632.127197 533.033569,633.099915 533.125793,637.191345 
	C533.388367,648.837463 533.486694,660.507019 533.008972,672.141113 
	C532.787964,677.522461 534.723511,679.027649 540.478577,678.219299 
z"/>
<path fill="#141B4B" opacity="1.000000" stroke="none" 
	d="
M512.082764,642.080322 
	C512.434143,657.698425 512.486877,673.389893 512.433472,689.539062 
	C509.042572,689.807800 506.021515,690.799927 507.267792,694.595215 
	C509.288086,700.747375 505.587524,704.368835 502.246155,708.095276 
	C498.145325,712.668762 493.762115,717.024292 489.172821,721.104980 
	C487.623199,722.482971 485.083588,722.767822 482.970703,723.475464 
	C482.535828,723.621155 481.952362,723.290771 481.495056,723.406799 
	C475.596497,724.904480 469.707672,726.440552 463.818268,727.974121 
	C462.699005,728.265503 461.601837,728.786560 460.470856,728.866028 
	C446.768188,729.829956 432.574738,730.301941 420.782715,722.879944 
	C413.042694,718.008301 407.076660,720.763611 400.300079,722.328918 
	C395.979462,723.326965 392.627747,723.491638 390.599457,718.474182 
	C388.826843,714.089172 386.292145,710.012146 384.449829,705.364014 
	C393.634186,703.522522 393.896790,703.227051 393.918243,694.775940 
	C393.978271,671.153381 394.040649,647.530762 394.102081,623.908203 
	C398.809265,622.097107 402.168121,622.645081 404.898315,627.773560 
	C406.978058,631.680359 410.468781,630.437988 413.296631,625.006104 
	C413.614227,648.677795 413.688934,672.660706 413.762573,696.643616 
	C413.767181,698.142334 413.763428,699.641052 413.715607,701.834961 
	C414.190674,702.958740 414.713715,703.387390 415.236755,703.816040 
	C415.236725,703.816040 415.146667,703.839539 415.207642,703.904175 
	C415.268616,703.968750 415.610596,704.136719 415.610596,704.136719 
	C415.610596,704.136719 415.991669,704.087097 415.991669,704.087097 
	C426.808929,704.067261 437.632141,704.272156 448.442352,703.985474 
	C481.132629,703.118591 502.930603,674.215271 495.035950,642.429749 
	C494.836823,641.627991 494.814270,640.782349 494.685120,639.542358 
	C499.276733,635.288330 502.911530,639.188477 505.920715,641.397949 
	C508.234314,643.096741 509.615265,643.387390 512.082764,642.080322 
M411.642426,634.806213 
	C411.296234,634.659241 410.950043,634.512268 410.603882,634.365295 
	C410.605042,634.795105 410.606201,635.224915 410.607361,635.654724 
	C410.952271,635.502930 411.297211,635.351135 411.642426,634.806213 
z"/>
<path fill="#F56993" opacity="1.000000" stroke="none" 
	d="
M305.052032,703.862854 
	C300.447540,703.523560 299.457642,699.731934 298.056915,696.423523 
	C287.223389,670.836548 276.439545,645.228455 265.599091,619.644409 
	C264.236847,616.429443 262.499908,613.371521 261.175323,610.142822 
	C259.197540,605.322083 261.216919,602.339111 266.360260,602.193481 
	C266.692963,602.184021 267.027069,602.184692 267.359222,602.203247 
	C282.456207,603.045288 279.995758,599.796448 286.110077,614.740234 
	C293.602356,633.051819 300.503326,651.605225 307.666412,670.051697 
	C308.119568,671.218689 308.627930,672.364319 309.539764,674.547241 
	C313.355621,664.359680 316.718994,655.195312 320.218170,646.083130 
	C324.930176,633.812683 329.868164,621.627747 334.461639,609.313782 
	C336.416321,604.073853 339.435516,601.334106 345.290588,602.253662 
	C347.566589,602.611084 349.951172,602.207886 352.274231,602.349182 
	C357.171478,602.647095 358.813354,605.070679 357.112671,609.617615 
	C355.891724,612.881897 354.397156,616.043762 352.778137,619.894470 
	C342.964050,643.867920 333.573395,667.272949 323.766754,690.502380 
	C317.206482,706.041809 321.906158,703.376526 305.052032,703.862854 
z"/>
<path fill="#AB4450" opacity="1.000000" stroke="none" 
	d="
M503.077026,356.847534 
	C503.371216,359.611847 503.614166,362.432220 503.711517,365.930054 
	C503.372284,367.399261 503.178650,368.191071 502.723511,368.904938 
	C501.008270,369.171448 499.493958,369.360413 498.115234,369.897430 
	C496.131531,370.670105 494.229462,372.504456 492.322357,372.464417 
	C486.246979,372.336792 481.215027,375.078583 475.898010,377.260986 
	C470.255310,379.577057 462.666321,379.979187 459.172729,384.021820 
	C454.280731,389.682648 448.772491,391.632019 442.547607,394.536774 
	C437.422607,396.928223 432.946198,397.890045 427.749298,397.912659 
	C427.823578,378.318451 427.306458,358.697723 428.183044,339.139496 
	C428.753326,326.414429 443.082123,318.365540 454.783661,323.554596 
	C460.328217,326.013367 465.287720,329.859558 470.359406,333.302399 
	C480.899994,340.457794 491.338593,347.763367 502.108154,355.556030 
	C502.644196,356.405212 502.891144,356.705566 503.138092,357.005920 
	C503.138092,357.005920 503.025848,356.903625 503.077026,356.847534 
z"/>
<path fill="#F56993" opacity="1.000000" stroke="none" 
	d="
M729.044739,703.864868 
	C728.057434,701.762390 726.286743,699.685486 726.217407,697.553101 
	C725.903015,687.896729 726.391235,678.208435 725.905762,668.566162 
	C725.708557,664.648804 724.519775,660.363708 722.494385,657.027893 
	C713.420837,642.083374 703.876343,627.424927 694.524719,612.648682 
	C693.637817,611.247314 692.770020,609.803223 692.137573,608.277771 
	C690.705139,604.822449 692.112976,602.251282 695.898926,602.072083 
	C700.381592,601.859680 704.959778,601.786255 709.355713,602.509033 
	C711.206482,602.813293 713.145752,605.031311 714.277222,606.855408 
	C721.122437,617.890991 727.734619,629.071045 734.463318,640.179443 
	C735.031921,641.118103 735.884644,641.884705 737.094543,643.305786 
	C738.606445,641.275513 740.008850,639.724304 741.037964,637.955872 
	C747.068848,627.592651 753.078369,617.215759 758.948425,606.761108 
	C760.888000,603.306641 763.434021,601.684082 767.457031,602.080627 
	C770.431396,602.373901 773.456299,602.108459 776.449890,602.262146 
	C781.892456,602.541504 783.218201,604.812439 780.796814,609.775146 
	C779.704834,612.013306 778.318726,614.108032 777.028687,616.619385 
	C776.991272,616.970886 776.956421,616.943542 776.686951,617.148315 
	C772.686768,623.551636 768.956055,629.750122 765.092285,636.105835 
	C764.959167,636.263062 764.899902,636.670776 764.651367,636.836914 
	C762.804138,639.616089 761.205505,642.229065 759.371094,645.073547 
	C756.978516,648.667480 754.957397,652.127380 752.632812,655.369507 
	C749.208862,660.145020 747.610291,665.225464 747.874451,671.220886 
	C748.240662,679.533752 747.921021,687.878479 747.837036,696.208923 
	C747.775574,702.309875 746.702576,703.444458 740.535156,703.723877 
	C736.710754,703.897217 732.875244,703.826233 729.044739,703.864868 
z"/>
<path fill="#813255" opacity="1.000000" stroke="none" 
	d="
M504.639832,433.054138 
	C504.667206,441.082550 504.694580,449.110962 504.376099,457.838135 
	C502.490540,466.112122 500.838776,473.666992 499.454620,481.270569 
	C498.669495,485.583344 496.312897,487.820740 492.121796,488.967682 
	C486.778961,490.429901 481.220703,491.779755 476.425079,494.402649 
	C469.794067,498.029327 463.829254,502.860870 457.494751,507.048767 
	C454.630768,508.942200 451.213531,510.126587 448.668091,512.344971 
	C444.542847,515.940247 440.929108,520.122375 437.025116,524.133057 
	C436.224335,523.741516 434.508575,522.902588 432.792786,522.063660 
	C431.182983,515.679626 428.857788,509.374084 428.146393,502.891449 
	C427.278809,494.985565 427.767426,486.930878 428.038666,478.572693 
	C430.628174,479.537170 432.170929,479.325165 433.725586,476.872833 
	C434.777435,475.213745 436.868225,473.129028 438.502136,473.122284 
	C443.844177,473.100159 447.354828,469.954468 451.298737,467.239441 
	C453.437622,465.767029 456.068115,465.027954 458.391968,463.797791 
	C459.810089,463.047089 461.089111,462.021973 462.391632,461.066986 
	C465.135132,459.055511 467.663757,456.664795 470.616821,455.041412 
	C479.561981,450.124084 488.690399,445.540955 497.680817,440.703796 
	C498.766022,440.119904 499.429901,438.765228 500.311829,437.788361 
	C501.744598,436.201385 503.196228,434.631348 504.639832,433.054138 
z"/>
<path fill="#F56993" opacity="1.000000" stroke="none" 
	d="
M637.138123,680.975891 
	C639.807007,681.326416 642.475891,681.676941 646.015137,682.014404 
	C649.254456,681.952271 651.623291,681.903259 653.992188,681.854248 
	C662.475464,681.998169 670.959290,682.118286 679.441895,682.293457 
	C686.049255,682.429871 686.884766,683.218750 687.370361,689.703491 
	C687.581482,692.523315 687.678833,695.351624 687.872803,698.959229 
	C687.784241,702.906189 685.800903,704.072937 682.738281,704.280151 
	C682.506287,704.235413 682.052002,704.365173 681.587524,704.276367 
	C659.751953,704.175049 638.380859,704.162598 617.009766,704.150146 
	C616.313477,702.349060 615.617126,700.548035 614.886047,697.904419 
	C614.833313,683.377808 614.815247,669.693665 614.797180,656.009521 
	C614.851318,641.374268 614.919739,626.739136 614.953369,612.103821 
	C614.969666,604.981506 616.749023,603.161926 623.730957,603.279846 
	C636.810486,603.500732 636.723816,603.500610 636.700562,616.765442 
	C636.664001,637.562683 636.757996,658.360168 636.848389,679.834717 
	C636.979431,680.666504 637.058777,680.821167 637.138123,680.975891 
z"/>
<path fill="#141B4B" opacity="1.000000" stroke="none" 
	d="
M614.441284,655.985168 
	C614.815247,669.693665 614.833313,683.377808 614.781982,697.525513 
	C613.523743,699.115906 612.334778,700.242798 610.837463,701.661865 
	C610.078857,700.736633 609.270203,699.750488 607.804138,697.962463 
	C606.321289,699.813232 604.677917,701.325134 603.690002,703.185181 
	C597.564880,714.718811 586.970337,720.284241 575.350281,724.221558 
	C564.845398,727.781006 553.682068,728.523376 542.801941,728.570068 
	C537.193054,728.594238 529.560852,727.840088 527.256470,719.751343 
	C526.979492,718.779419 525.004883,718.410706 524.204041,717.442322 
	C522.747864,715.681519 520.825439,713.804504 520.488281,711.747925 
	C520.073181,709.216003 519.420776,707.984253 516.879700,708.314758 
	C513.835815,708.710693 513.075439,707.020325 513.093567,704.097900 
	C525.871704,703.747009 538.688538,704.453613 551.413452,703.669617 
	C577.188843,702.081665 597.580750,677.741638 595.440491,652.075989 
	C595.208313,649.291931 595.150085,646.493408 595.057617,643.354919 
	C602.581299,641.756348 602.332336,642.018127 606.288330,649.108337 
	C607.877136,651.956116 611.427734,653.709412 614.441284,655.985168 
z"/>
<path fill="#141B4B" opacity="1.000000" stroke="none" 
	d="
M304.901062,704.251343 
	C321.906158,703.376526 317.206482,706.041809 323.766754,690.502380 
	C333.573395,667.272949 342.964050,643.867920 352.762848,620.268311 
	C358.339752,619.437439 361.550964,622.830811 364.670624,626.345581 
	C365.891144,627.720642 367.000244,629.194702 368.245117,630.728394 
	C369.805756,628.486145 370.953613,626.837036 372.509827,625.560547 
	C372.853821,631.285034 372.789459,636.636902 372.725098,641.988770 
	C370.583557,643.525696 367.385834,644.609131 366.495392,646.683105 
	C363.640808,653.331970 361.641571,660.347900 359.307281,667.220459 
	C359.093109,667.851013 358.534637,668.538208 358.656036,669.083313 
	C360.712677,678.317993 353.680756,684.519836 350.722076,691.981506 
	C347.649475,699.730408 345.359253,707.778809 340.371979,714.951660 
	C333.756317,724.466614 325.427185,727.436157 314.659729,725.887756 
	C310.503998,725.290222 304.535034,717.901489 304.170410,712.542664 
	C303.992859,709.933655 304.534180,707.275696 304.901062,704.251343 
z"/>
<path fill="#141B4B" opacity="1.000000" stroke="none" 
	d="
M729.093506,704.224915 
	C732.875244,703.826233 736.710754,703.897217 740.535156,703.723877 
	C746.702576,703.444458 747.775574,702.309875 747.837036,696.208923 
	C747.921021,687.878479 748.240662,679.533752 747.874451,671.220886 
	C747.610291,665.225464 749.208862,660.145020 752.632812,655.369507 
	C754.957397,652.127380 756.978516,648.667480 759.759399,645.025574 
	C762.461243,643.671387 764.866821,642.957397 766.539612,641.437134 
	C769.042603,639.162415 768.568970,637.191895 764.899902,636.670776 
	C764.899902,636.670776 764.959167,636.263062 765.442139,635.956909 
	C771.318054,630.426819 777.121216,625.444763 776.956421,616.943542 
	C776.956421,616.943542 776.991272,616.970886 776.970093,616.964966 
	C778.280151,616.964111 779.612549,617.007996 780.942505,616.968079 
	C788.822815,616.731812 794.236450,621.266296 794.799072,629.371704 
	C795.266846,636.111206 795.300842,642.501038 789.229797,648.000793 
	C785.154846,651.692261 783.309448,657.810791 780.327759,662.759827 
	C779.141907,664.728210 777.568726,666.461365 776.196411,668.319763 
	C775.219727,669.642273 773.395874,671.052673 773.478577,672.324524 
	C773.912048,678.991272 769.069885,683.621765 767.450012,689.402588 
	C766.397705,693.158386 765.759216,697.285950 766.123657,701.134338 
	C767.168335,712.165588 759.294556,717.737305 752.712402,724.062012 
	C751.688110,725.046204 748.801270,725.339233 747.554016,724.613831 
	C743.565796,722.294312 739.384521,719.853088 736.337219,716.496948 
	C733.277344,713.126953 731.488281,708.603088 729.093506,704.224915 
z"/>
<path fill="#973D55" opacity="1.000000" stroke="none" 
	d="
M502.984985,368.982849 
	C503.178650,368.191071 503.372284,367.399261 503.719910,366.341919 
	C504.197845,377.121429 504.521759,388.166565 504.748688,399.766510 
	C504.603760,400.503662 504.625305,400.677765 504.716309,400.843597 
	C504.738129,403.973297 504.759949,407.102997 504.450500,410.845337 
	C504.172821,412.450073 504.226410,413.442200 504.280029,414.434326 
	C504.477173,416.052643 504.674316,417.670990 504.429260,419.657318 
	C502.658813,420.799408 500.584045,421.278595 500.140259,422.402069 
	C498.723328,425.988831 496.102356,426.883850 492.687195,427.096161 
	C482.572693,427.724945 473.698029,431.798157 465.486206,437.414185 
	C458.997162,441.852020 453.073853,446.780273 444.785065,448.388885 
	C438.824341,449.545746 433.368866,453.305664 427.688019,455.904358 
	C427.612122,444.244049 427.536255,432.583710 427.832092,420.538971 
	C430.569550,421.772186 439.560425,419.937561 443.153412,417.803741 
	C451.548828,412.817932 460.156342,408.188995 468.690674,403.438354 
	C469.110077,403.204895 469.648071,403.177795 470.134888,403.073334 
	C480.922211,400.758057 490.051086,394.973938 499.116333,389.100372 
	C499.959717,388.553955 500.655090,387.273651 500.804169,386.244995 
	C501.635864,380.506134 502.278015,374.739807 502.984985,368.982849 
z"/>
<path fill="#742C53" opacity="1.000000" stroke="none" 
	d="
M432.835815,522.423828 
	C434.508575,522.902588 436.224335,523.741516 437.025116,524.133057 
	C440.929108,520.122375 444.542847,515.940247 448.668091,512.344971 
	C451.213531,510.126587 454.630768,508.942200 457.494751,507.048767 
	C463.829254,502.860870 469.794067,498.029327 476.425079,494.402649 
	C481.220703,491.779755 486.778961,490.429901 492.121796,488.967682 
	C496.312897,487.820740 498.669495,485.583344 499.454620,481.270569 
	C500.838776,473.666992 502.490540,466.112122 504.280304,458.301880 
	C504.668243,473.113068 504.798676,488.159241 504.952454,503.205231 
	C504.974396,505.350128 505.109650,507.493835 505.146179,510.137146 
	C504.049927,511.392242 502.999969,512.148315 501.646118,513.011414 
	C500.214844,514.071899 499.087463,515.025330 497.658142,516.132263 
	C489.316833,521.818115 481.341797,527.447144 473.217377,532.851685 
	C466.897980,537.055481 460.392517,540.979614 453.969757,545.028076 
	C451.892700,544.002625 449.815643,542.977173 447.410126,541.827393 
	C442.347382,535.396729 437.613098,529.090393 432.835815,522.423828 
z"/>
<path fill="#813255" opacity="1.000000" stroke="none" 
	d="
M613.234131,456.672302 
	C613.317261,464.849976 613.574463,472.739655 612.910583,480.551056 
	C612.455261,485.909088 610.719299,491.158264 609.068359,496.854095 
	C608.412903,498.186127 608.244873,499.120209 608.076782,500.054260 
	C607.822693,500.854279 607.568542,501.654327 606.925415,502.392700 
	C606.012390,500.258087 605.350952,498.208740 604.990112,496.107788 
	C603.924927,489.906097 597.046997,485.673706 590.951294,486.269684 
	C585.492920,486.803406 579.860901,486.052826 574.355042,485.430328 
	C570.837280,485.032562 567.449585,483.551056 563.933167,483.060822 
	C557.250122,482.129059 550.516479,481.559784 543.803894,480.840027 
	C554.125610,472.645172 564.451721,464.455780 574.767151,456.252960 
	C579.304260,452.645020 583.731140,448.891724 588.367188,445.416656 
	C594.154602,441.078491 598.284668,435.730896 599.965454,428.233643 
	C606.936035,433.473999 608.242188,441.704346 610.835571,449.285065 
	C611.633057,451.616150 612.292786,453.994324 613.234131,456.672302 
z"/>
<path fill="#F56993" opacity="1.000000" stroke="none" 
	d="
M372.818726,642.449890 
	C372.789459,636.636902 372.853821,631.285034 372.840729,625.471863 
	C372.819458,619.706238 372.890961,614.402100 372.926666,609.097595 
	C372.951996,605.335693 374.406708,603.209717 378.572876,603.328430 
	C396.474976,603.838745 393.652435,602.444336 393.895844,618.146667 
	C393.921570,619.805542 393.922394,621.464783 394.018433,623.515991 
	C394.040649,647.530762 393.978271,671.153381 393.918243,694.775940 
	C393.896790,703.227051 393.634186,703.522522 384.404541,704.996704 
	C382.765381,704.657532 381.555084,704.068726 380.284332,703.873657 
	C372.993073,702.754333 373.006744,702.786072 372.998840,695.281982 
	C372.980499,677.825012 372.942474,660.367981 372.818726,642.449890 
z"/>
<path fill="#9E4054" opacity="1.000000" stroke="none" 
	d="
M502.723480,368.904938 
	C502.278015,374.739807 501.635864,380.506134 500.804169,386.244995 
	C500.655090,387.273651 499.959717,388.553955 499.116333,389.100372 
	C490.051086,394.973938 480.922211,400.758057 470.134888,403.073334 
	C469.648071,403.177795 469.110077,403.204895 468.690674,403.438354 
	C460.156342,408.188995 451.548828,412.817932 443.153412,417.803741 
	C439.560425,419.937561 430.569550,421.772186 427.935150,420.082275 
	C427.621155,419.553467 427.575867,419.096954 427.818848,418.038025 
	C427.957001,412.300385 427.806915,407.165161 427.656799,402.029938 
	C427.610596,400.925598 427.564392,399.821259 427.633728,398.314789 
	C432.946198,397.890045 437.422607,396.928223 442.547607,394.536774 
	C448.772491,391.632019 454.280731,389.682648 459.172729,384.021820 
	C462.666321,379.979187 470.255310,379.577057 475.898010,377.260986 
	C481.215027,375.078583 486.246979,372.336792 492.322357,372.464417 
	C494.229462,372.504456 496.131531,370.670105 498.115234,369.897430 
	C499.493958,369.360413 501.008270,369.171448 502.723480,368.904938 
z"/>
<path fill="#141B4B" opacity="1.000000" stroke="none" 
	d="
M617.056274,704.498291 
	C638.380859,704.162598 659.751953,704.175049 681.698547,704.330444 
	C682.274048,704.473328 682.638428,704.479553 682.638428,704.479553 
	C682.638428,704.479553 682.970276,704.324829 682.970276,704.324829 
	C685.800903,704.072937 687.784241,702.906189 687.987183,699.374023 
	C690.891846,701.488647 693.812927,703.883423 696.504822,706.512878 
	C697.226562,707.217957 697.567688,708.645325 697.543762,709.729187 
	C697.329773,719.415771 691.674927,726.613281 682.010681,727.103638 
	C669.281372,727.749390 656.334717,728.060242 643.760559,726.400574 
	C635.648193,725.329712 626.671143,722.408875 623.861328,712.235168 
	C623.487732,710.882446 621.657349,709.953247 620.559631,708.773865 
	C619.371887,707.497803 618.252136,706.158264 617.056274,704.498291 
z"/>
<path fill="#8D3855" opacity="1.000000" stroke="none" 
	d="
M427.572510,456.347504 
	C433.368866,453.305664 438.824341,449.545746 444.785065,448.388885 
	C453.073853,446.780273 458.997162,441.852020 465.486206,437.414185 
	C473.698029,431.798157 482.572693,427.724945 492.687195,427.096161 
	C496.102356,426.883850 498.723328,425.988831 500.140259,422.402069 
	C500.584045,421.278595 502.658813,420.799408 504.357513,420.013885 
	C504.762848,424.047211 504.797699,428.092010 504.736206,432.595459 
	C503.196228,434.631348 501.744598,436.201385 500.311829,437.788361 
	C499.429901,438.765228 498.766022,440.119904 497.680817,440.703796 
	C488.690399,445.540955 479.561981,450.124084 470.616821,455.041412 
	C467.663757,456.664795 465.135132,459.055511 462.391632,461.066986 
	C461.089111,462.021973 459.810089,463.047089 458.391968,463.797791 
	C456.068115,465.027954 453.437622,465.767029 451.298737,467.239441 
	C447.354828,469.954468 443.844177,473.100159 438.502136,473.122284 
	C436.868225,473.129028 434.777435,475.213745 433.725586,476.872833 
	C432.170929,479.325165 430.628174,479.537170 428.096985,478.107117 
	C427.676422,470.936493 427.566711,463.863556 427.572510,456.347504 
z"/>
<path fill="#141B4B" opacity="1.000000" stroke="none" 
	d="
M653.992310,681.441040 
	C651.623291,681.903259 649.254456,681.952271 646.446228,681.932556 
	C638.319031,676.390015 640.264954,668.227539 639.914001,660.614258 
	C639.695129,655.866394 638.499573,651.160400 638.324890,646.414246 
	C638.045532,638.819092 638.250122,631.206238 638.250122,623.600830 
	C638.779175,623.450684 639.308167,623.300598 639.837219,623.150452 
	C642.539185,630.141418 644.828918,637.329529 648.053406,644.070557 
	C651.615845,651.518250 650.530579,659.282471 651.143738,666.985535 
	C651.519958,671.711914 653.005188,676.350159 653.992310,681.441040 
z"/>
<path fill="#973D55" opacity="1.000000" stroke="none" 
	d="
M427.551331,402.483154 
	C427.806915,407.165161 427.957001,412.300385 427.877838,417.697784 
	C427.580994,412.952118 427.513397,407.944244 427.551331,402.483154 
z"/>
<path fill="#141B4B" opacity="1.000000" stroke="none" 
	d="
M512.083984,697.074829 
	C512.441895,697.751526 512.540771,698.496033 512.572144,699.613037 
	C510.543732,699.452515 509.483276,698.704163 512.083984,697.074829 
z"/>
<path fill="#141B4B" opacity="1.000000" stroke="none" 
	d="
M512.477722,606.846069 
	C512.583496,606.915466 512.562134,607.092712 512.382935,607.486511 
	C512.156738,607.545715 512.034241,607.386597 512.039673,607.231873 
	C512.043091,607.135742 512.240295,607.046387 512.477722,606.846069 
z"/>
<path fill="#141B4B" opacity="1.000000" stroke="none" 
	d="
M511.489929,638.507935 
	C511.484070,638.487732 511.495819,638.528076 511.489929,638.507935 
z"/>
<path fill="#141B4B" opacity="1.000000" stroke="none" 
	d="
M637.161011,680.849731 
	C637.058777,680.821167 636.979431,680.666504 636.944214,680.254761 
	C637.133972,680.220764 637.199219,680.462646 637.161011,680.849731 
z"/>
<path fill="#FA6A94" opacity="1.000000" stroke="none" 
	d="
M503.180786,356.663147 
	C502.891144,356.705566 502.644196,356.405212 502.226257,355.864075 
	C502.444702,355.855682 502.834076,356.088043 503.180786,356.663147 
z"/>
<path fill="#9E4054" opacity="1.000000" stroke="none" 
	d="
M501.949982,512.904358 
	C502.999969,512.148315 504.049927,511.392242 505.328339,510.538055 
	C505.740662,510.276001 505.924561,510.112061 506.592438,510.107605 
	C510.099640,513.149902 512.657288,517.047913 516.247498,518.694458 
	C522.776245,521.688721 530.289978,522.594482 536.702515,525.766785 
	C543.406128,529.083069 549.256714,533.934998 557.335693,533.939758 
	C560.469971,533.941650 563.611450,535.081116 566.734253,535.772217 
	C568.348328,536.129395 570.898132,536.236633 571.289062,537.177795 
	C571.828735,538.477356 571.051147,540.631958 570.254517,542.105042 
	C569.111267,544.219116 567.442200,546.048889 565.997559,548.000000 
	C554.122253,554.662170 541.256470,558.863159 527.921082,560.540710 
	C518.688904,561.702148 509.082397,560.968811 499.757263,559.992371 
	C491.224121,559.098694 482.641968,557.389526 474.458435,554.832825 
	C467.468750,552.649170 461.014282,548.752380 454.146393,545.320740 
	C460.392517,540.979614 466.897980,537.055481 473.217377,532.851685 
	C481.341797,527.447144 489.316833,521.818115 498.007812,516.097534 
	C499.756287,514.907715 500.853119,513.906006 501.949982,512.904358 
z"/>
<path fill="#8D3855" opacity="1.000000" stroke="none" 
	d="
M543.500305,480.974670 
	C550.516479,481.559784 557.250122,482.129059 563.933167,483.060822 
	C567.449585,483.551056 570.837280,485.032562 574.355042,485.430328 
	C579.860901,486.052826 585.492920,486.803406 590.951294,486.269684 
	C597.046997,485.673706 603.924927,489.906097 604.990112,496.107788 
	C605.350952,498.208740 606.012390,500.258087 606.727661,502.642639 
	C606.766846,503.507721 606.614807,504.061157 606.001831,504.814697 
	C605.363220,505.007050 605.185486,504.999359 604.983032,504.880066 
	C604.881897,504.744873 604.805542,504.721283 604.729126,504.697662 
	C604.817261,504.799683 604.905334,504.901703 604.998108,505.353027 
	C605.018799,506.168152 605.034912,506.634033 605.051025,507.099884 
	C600.014221,514.681030 594.977417,522.262207 589.362305,529.785217 
	C587.841309,527.390076 586.898621,525.053101 585.955872,522.716064 
	C586.425232,522.538086 586.894531,522.360107 587.363892,522.182129 
	C588.198303,523.700012 589.032776,525.217834 589.867249,526.735718 
	C590.359375,526.496460 590.851501,526.257263 591.343628,526.018005 
	C590.011597,523.195068 589.396545,518.939026 587.201599,517.841003 
	C582.302429,515.390015 576.627319,514.468323 571.241638,513.023071 
	C569.348877,512.515137 567.184570,512.698853 565.477966,511.875336 
	C559.633972,509.055389 553.998108,505.803436 548.148315,502.996643 
	C546.444275,502.179108 544.267883,502.400421 542.347656,501.968994 
	C536.288391,500.607697 529.691589,500.741791 524.875366,495.833740 
	C530.982483,490.925568 537.089600,486.017426 543.500305,480.974670 
z"/>
<path fill="#973D55" opacity="1.000000" stroke="none" 
	d="
M524.565186,495.969391 
	C529.691589,500.741791 536.288391,500.607697 542.347656,501.968994 
	C544.267883,502.400421 546.444275,502.179108 548.148315,502.996643 
	C553.998108,505.803436 559.633972,509.055389 565.477966,511.875336 
	C567.184570,512.698853 569.348877,512.515137 571.241638,513.023071 
	C576.627319,514.468323 582.302429,515.390015 587.201599,517.841003 
	C589.396545,518.939026 590.011597,523.195068 591.343628,526.018005 
	C590.851501,526.257263 590.359375,526.496460 589.867249,526.735718 
	C589.032776,525.217834 588.198303,523.700012 587.363892,522.182129 
	C586.894531,522.360107 586.425232,522.538086 585.955872,522.716064 
	C586.898621,525.053101 587.841309,527.390076 589.088196,529.955566 
	C581.831421,536.115234 574.270508,542.046448 566.353638,547.988892 
	C567.442200,546.048889 569.111267,544.219116 570.254517,542.105042 
	C571.051147,540.631958 571.828735,538.477356 571.289062,537.177795 
	C570.898132,536.236633 568.348328,536.129395 566.734253,535.772217 
	C563.611450,535.081116 560.469971,533.941650 557.335693,533.939758 
	C549.256714,533.934998 543.406128,529.083069 536.702515,525.766785 
	C530.289978,522.594482 522.776245,521.688721 516.247498,518.694458 
	C512.657288,517.047913 510.099640,513.149902 506.909790,509.918304 
	C512.580505,505.081390 518.417786,500.593231 524.565186,495.969391 
z"/>
<path fill="#8D3855" opacity="1.000000" stroke="none" 
	d="
M504.417114,414.017334 
	C504.226410,413.442200 504.172821,412.450073 504.348511,411.233765 
	C504.569977,411.873169 504.562103,412.736725 504.417114,414.017334 
z"/>
<path fill="#AB4450" opacity="1.000000" stroke="none" 
	d="
M504.752075,400.674194 
	C504.625305,400.677765 504.603760,400.503662 504.691406,400.242310 
	C504.731171,400.163239 504.787811,400.504822 504.752075,400.674194 
z"/>
<path fill="#8D3855" opacity="1.000000" stroke="none" 
	d="
M608.250061,499.781250 
	C608.244873,499.120209 608.412903,498.186127 608.843872,497.141785 
	C608.878967,497.857086 608.651123,498.682648 608.250061,499.781250 
z"/>
<path fill="#813255" opacity="1.000000" stroke="none" 
	d="
M605.245667,506.880432 
	C605.034912,506.634033 605.018799,506.168152 605.001526,505.350952 
	C605.000305,504.999603 605.007812,504.991669 605.007812,504.991669 
	C605.185486,504.999359 605.363220,505.007050 605.807495,505.028748 
	C605.862793,505.582153 605.651611,506.121582 605.245667,506.880432 
z"/>
<path fill="#141B4B" opacity="1.000000" stroke="none" 
	d="
M452.477722,634.344299 
	C461.839294,639.153870 467.357239,646.218384 466.829681,656.672729 
	C466.375366,665.674988 461.865387,672.736328 453.416565,675.994934 
	C448.453979,677.908997 442.773987,678.099182 437.373596,678.604309 
	C436.498383,678.686218 434.550629,676.377869 434.532684,675.153442 
	C434.340881,662.037964 434.346619,648.916504 434.606964,635.802795 
	C434.631012,634.589783 436.826935,632.360718 437.930389,632.411987 
	C442.681396,632.632629 447.401031,633.528381 452.477722,634.344299 
z"/>
<path fill="#1E1E4F" opacity="1.000000" stroke="none" 
	d="
M415.091431,703.568726 
	C414.713715,703.387390 414.190674,702.958740 413.707520,702.309204 
	C414.146942,702.499329 414.546509,702.910339 415.091431,703.568726 
z"/>
<path fill="#1E1E4F" opacity="1.000000" stroke="none" 
	d="
M415.798950,703.940796 
	C415.991669,704.087097 415.610596,704.136719 415.610596,704.136719 
	C415.610596,704.136719 415.268616,703.968750 415.196472,703.859009 
	C415.124359,703.749207 415.606201,703.794495 415.798950,703.940796 
z"/>
<path fill="#141B4B" opacity="1.000000" stroke="none" 
	d="
M540.008545,678.236694 
	C534.723511,679.027649 532.787964,677.522461 533.008972,672.141113 
	C533.486694,660.507019 533.388367,648.837463 533.125793,637.191345 
	C533.033569,633.099915 534.514160,632.127197 538.260498,632.034546 
	C552.223450,631.689148 562.551270,638.407166 565.380737,650.011536 
	C568.391418,662.359009 561.263855,674.154907 548.868774,677.102356 
	C546.137939,677.751709 543.278687,677.861206 540.008545,678.236694 
z"/>
<path fill="#1E1E4F" opacity="1.000000" stroke="none" 
	d="
M411.642273,635.002808 
	C411.297211,635.351135 410.952271,635.502930 410.607361,635.654724 
	C410.606201,635.224915 410.605042,634.795105 410.603882,634.365295 
	C410.950043,634.512268 411.296234,634.659241 411.642273,635.002808 
z"/>
<path fill="#1E1E4F" opacity="1.000000" stroke="none" 
	d="
M776.686951,617.148315 
	C777.121216,625.444763 771.318054,630.426819 765.575256,635.799683 
	C768.956055,629.750122 772.686768,623.551636 776.686951,617.148315 
z"/>
<path fill="#1E1E4F" opacity="1.000000" stroke="none" 
	d="
M764.651367,636.836914 
	C768.568970,637.191895 769.042603,639.162415 766.539612,641.437134 
	C764.866821,642.957397 762.461243,643.671387 759.995178,644.794128 
	C761.205505,642.229065 762.804138,639.616089 764.651367,636.836914 
z"/>
<path fill="#1E1E4F" opacity="1.000000" stroke="none" 
	d="
M682.738281,704.280151 
	C682.970276,704.324829 682.638428,704.479553 682.638428,704.479553 
	C682.638428,704.479553 682.274048,704.473328 682.163025,704.419250 
	C682.052002,704.365173 682.506287,704.235413 682.738281,704.280151 
z"/>
<path fill="#973D55" opacity="1.000000" stroke="none" 
	d="
M501.646118,513.011414 
	C500.853119,513.906006 499.756287,514.907715 498.309753,515.944092 
	C499.087463,515.025330 500.214844,514.071899 501.646118,513.011414 
z"/>
<path fill="#813255" opacity="1.000000" stroke="none" 
	d="
M604.996887,505.001648 
	C604.905334,504.901703 604.817261,504.799683 604.729126,504.697662 
	C604.805542,504.721283 604.881897,504.744873 604.983032,504.880066 
	C605.007812,504.991669 605.000305,504.999603 604.996887,505.001648 
z"/>
</svg>